<?xml version="1.0" standalone="no"?>
<!DOCTYPE svg PUBLIC "-//W3C//DTD SVG 20010904//EN"
 "http://www.w3.org/TR/2001/REC-SVG-20010904/DTD/svg10.dtd">
<svg version="1.0" xmlns="http://www.w3.org/2000/svg"
 width="150.000000pt" height="150.000000pt" viewBox="0 0 150.000000 150.000000"
 preserveAspectRatio="xMidYMid meet">
<metadata>
Created by potrace 1.14, written by Peter Selinger 2001-2017
</metadata>
<g transform="translate(0.000000,150.000000) scale(0.100000,-0.100000)"
fill="#000000" stroke="none">
<path d="M850 1462 c-105 -71 -183 -161 -247 -282 -30 -58 -64 -145 -65 -167
0 -1 -6 -26 -13 -56 -23 -98 -12 -322 19 -403 7 -19 99 -19 115 -1 6 8 8 17 5
20 -26 26 -39 263 -19 367 24 127 89 252 183 347 86 88 170 128 267 128 84 -1
136 -24 189 -86 50 -59 70 -125 63 -213 -3 -39 -8 -80 -12 -91 -5 -15 5 -33
40 -69 25 -27 47 -47 49 -45 13 13 38 126 43 190 12 158 -46 289 -164 370
l-42 29 -178 0 -178 -1 -55 -37z"/>
<path d="M318 1109 c-198 -67 -312 -210 -311 -390 1 -69 36 -189 55 -189 5 0
8 -6 8 -12 1 -25 106 -116 175 -151 109 -55 165 -68 312 -72 108 -3 181 7 272
36 37 12 162 69 171 79 3 3 30 22 60 42 82 55 132 106 125 126 -3 9 -18 32
-34 51 l-28 34 -36 -34 c-62 -60 -85 -79 -93 -79 -4 0 -15 -6 -23 -14 -20 -17
-131 -75 -157 -81 -11 -3 -53 -14 -94 -26 -99 -27 -244 -22 -349 12 -99 32
-191 105 -223 177 -37 84 -26 187 29 260 31 42 114 98 175 118 47 15 50 19 63
74 1 3 4 12 7 20 17 44 17 49 -4 47 -11 -1 -56 -13 -100 -28z"/>
<path d="M822 1065 c-26 -54 -27 -65 -7 -65 35 0 181 -65 249 -111 194 -130
316 -340 311 -537 -4 -131 -76 -234 -187 -266 -44 -13 -113 -14 -125 -3 -3 4
-16 7 -27 7 -28 0 -114 51 -149 88 l-28 29 -52 -14 c-29 -8 -58 -17 -66 -19
-19 -6 65 -93 136 -140 l51 -34 185 0 185 0 44 33 c121 93 172 240 145 427
-17 125 -90 277 -178 375 -15 17 -36 39 -46 51 -57 64 -204 156 -318 199 -90
34 -97 33 -123 -20z"/>
</g>
</svg>
